<svg width="73" height="93" viewBox="0 0 73 93" fill="none" xmlns="http://www.w3.org/2000/svg">
<path d="M0.237305 77.22L11.1573 67.47C14.104 64.6967 17.3106 61.9667 20.7773 59.28C27.1906 53.82 31.784 49.5733 34.5573 46.54C37.4173 43.42 38.8473 40.3867 38.8473 37.44C38.8473 35.0133 37.894 33.02 35.9873 31.46C34.0806 29.9 31.0906 29.12 27.0173 29.12C23.0306 29.12 18.8706 29.9433 14.5373 31.59C10.204 33.2367 6.30397 35.4033 2.8373 38.09V8.97C6.82397 6.19667 11.7206 4.03 17.5273 2.47C23.334 0.823333 29.3573 0 35.5973 0C42.7906 0 48.9873 1.25667 54.1873 3.77C59.3873 6.28334 63.374 9.70667 66.1473 14.04C68.9206 18.3733 70.3073 23.1833 70.3073 28.47C70.3073 35.9233 68.964 42.1633 66.2773 47.19C63.5906 52.2167 59.2573 57.3733 53.2773 62.66L45.4773 69.55H72.7773V92.82H0.237305V77.22Z" fill="#7155A4"/>
</svg>
