<svg width="73" height="95" viewBox="0 0 73 95" fill="none" xmlns="http://www.w3.org/2000/svg">
<path d="M31.3769 94.77C25.3102 94.77 19.5035 94.25 13.9569 93.21C8.49688 92.17 3.86021 90.61 0.046875 88.53V65.52C9.14688 69.7667 18.0735 71.89 26.8269 71.89C36.6202 71.89 41.5169 69.55 41.5169 64.87C41.5169 62.4433 40.4335 60.7533 38.2669 59.8C36.1002 58.8467 32.4169 58.37 27.2169 58.37H13.3069V35.88H26.5669C30.8135 35.88 33.9335 35.36 35.9269 34.32C38.0069 33.28 39.0469 31.59 39.0469 29.25C39.0469 27.0833 38.0069 25.48 35.9269 24.44C33.9335 23.4 31.1602 22.88 27.6069 22.88C22.3202 22.88 17.5535 23.4867 13.3069 24.7C9.06021 25.9133 5.07354 27.7333 1.34687 30.16V6.5C5.42021 4.50667 10.1435 2.94667 15.5169 1.82C20.8902 0.606667 26.3502 0 31.8969 0C44.8969 0 54.5602 2.47 60.8869 7.41001C67.3002 12.35 70.5069 19.24 70.5069 28.08C70.5069 31.46 69.8569 34.7967 68.5569 38.09C67.2569 41.3833 65.2635 44.3733 62.5769 47.06C66.3902 49.5733 69.0769 52.4333 70.6369 55.64C72.1969 58.76 72.9769 62.3567 72.9769 66.43C72.9769 75.3567 69.6402 82.3333 62.9669 87.36C56.3802 92.3 45.8502 94.77 31.3769 94.77Z" fill="#7155A4"/>
</svg>
