<svg width="74" height="93" viewBox="0 0 74 93" fill="none" xmlns="http://www.w3.org/2000/svg">
<path d="M30.4499 92.82C24.9033 92.82 19.3566 92.17 13.8099 90.87C8.34992 89.6567 3.88659 87.9667 0.419922 85.8V60.19C4.49326 63.05 9.12992 65.26 14.3299 66.82C19.5299 68.38 24.3833 69.16 28.8899 69.16C37.7299 69.16 42.1499 66.3433 42.1499 60.71C42.1499 57.85 41.0233 55.7267 38.7699 54.34C36.6033 52.8667 33.4399 52.13 29.2799 52.13C26.4199 52.13 23.3433 52.4333 20.0499 53.04C16.7566 53.56 13.8966 54.2967 11.4699 55.25L0.809922 49.14L4.44992 0H67.7599V23.27H33.1799L32.5299 31.2C35.4766 30.5067 38.9866 30.16 43.0599 30.16C52.8533 30.16 60.3933 32.6733 65.6799 37.7C70.9666 42.7267 73.6099 50.0933 73.6099 59.8C73.6099 70.2 70.0133 78.3033 62.8199 84.11C55.6266 89.9167 44.8366 92.82 30.4499 92.82Z" fill="#7155A4"/>
</svg>
