<svg width="81" height="95" viewBox="0 0 81 95" fill="none" xmlns="http://www.w3.org/2000/svg">
<path d="M40.8587 94.77C32.8854 94.77 25.822 92.9933 19.6687 89.44C13.602 85.8 8.87871 80.6867 5.49871 74.1C2.11871 67.5133 0.428711 59.8867 0.428711 51.22C0.428711 40.6467 2.55204 31.5033 6.79871 23.79C11.0454 16.0767 16.8087 10.1833 24.0887 6.11C31.3687 2.03667 39.5154 0 48.5287 0C55.982 0 62.352 0.953334 67.6387 2.86V27.69C63.132 25.09 57.542 23.79 50.8687 23.79C46.4487 23.79 42.4187 24.83 38.7787 26.91C35.2254 28.9033 32.972 31.7633 32.0187 35.49C34.0987 34.19 36.9154 33.1067 40.4687 32.24C44.022 31.3733 47.532 30.94 50.9987 30.94C60.0987 30.94 67.2921 33.5833 72.5787 38.87C77.8654 44.07 80.5087 51.5667 80.5087 61.36C80.5087 67.6 79.0354 73.2767 76.0887 78.39C73.1421 83.4167 68.6787 87.4033 62.6987 90.35C56.7187 93.2967 49.4387 94.77 40.8587 94.77ZM40.7287 72.02C43.5887 72.02 45.7554 71.24 47.2287 69.68C48.7887 68.0333 49.5687 65.7367 49.5687 62.79C49.5687 59.8433 48.7887 57.59 47.2287 56.03C45.7554 54.3833 43.5887 53.56 40.7287 53.56C38.1287 53.56 36.0487 54.3833 34.4887 56.03C32.9287 57.6767 32.1487 59.93 32.1487 62.79C32.1487 65.5633 32.8854 67.8167 34.3587 69.55C35.9187 71.1967 38.042 72.02 40.7287 72.02Z" fill="#7155A4"/>
</svg>
