<svg width="17" height="19" viewBox="0 0 17 19" fill="none" xmlns="http://www.w3.org/2000/svg">
<path d="M16.6045 0.828414C16.3512 0.560291 16.0077 0.409668 15.6495 0.409668C15.2914 0.409668 14.9479 0.560291 14.6946 0.828414L8.5 7.38735L2.30545 0.828414C2.05214 0.560291 1.70864 0.409668 1.35046 0.409668C0.992293 0.409668 0.648786 0.560291 0.395482 0.828414C0.142255 1.09662 0 1.46033 0 1.83957C0 2.21881 0.142255 2.58253 0.395482 2.85073L6.59004 9.40967L0.395482 15.9686C0.142255 16.2368 0 16.6005 0 16.9798C0 17.359 0.142255 17.7227 0.395482 17.9909C0.648786 18.259 0.992293 18.4097 1.35046 18.4097C1.70864 18.4097 2.05214 18.259 2.30545 17.9909L8.5 11.432L14.6946 17.9909C14.9479 18.259 15.2914 18.4097 15.6495 18.4097C16.0077 18.4097 16.3512 18.259 16.6045 17.9909C16.8577 17.7227 17 17.359 17 16.9798C17 16.6005 16.8577 16.2368 16.6045 15.9686L10.41 9.40967L16.6045 2.85073C16.8577 2.58253 17 2.21881 17 1.83957C17 1.46033 16.8577 1.09662 16.6045 0.828414Z" fill="#272643"/>
</svg>
