<svg width="59" height="59" viewBox="0 0 59 59" fill="none" xmlns="http://www.w3.org/2000/svg">
<path d="M4.91667 51.625V0H0V51.625C0 53.581 0.777007 55.4568 2.16009 56.8399C3.54317 58.223 5.41903 59 7.375 59H59V54.0833H7.375C6.72301 54.0833 6.09772 53.8243 5.6367 53.3633C5.17567 52.9023 4.91667 52.277 4.91667 51.625Z" fill="#7155A4"/>
<path d="M55.3124 9.83331H41.7915L48.6577 16.6994L38.104 27.2531L33.1874 22.3364L15.4407 40.0831L18.929 43.5715L33.1997 29.3131L38.1163 34.2298L52.146 20.2001L58.9999 27.0416V13.5208C58.9999 12.5428 58.6114 11.6049 57.9198 10.9134C57.2283 10.2218 56.2904 9.83331 55.3124 9.83331Z" fill="#7155A4"/>
</svg>
