<svg width="62" height="59" viewBox="0 0 62 59" fill="none" xmlns="http://www.w3.org/2000/svg">
<path d="M61.9977 29.5C61.9915 27.7705 61.5919 26.0648 60.8289 24.5101C60.0658 22.9555 58.9589 21.5921 57.5909 20.5218C59.4835 19.0401 60.8632 17.0088 61.5376 14.7112C62.212 12.4135 62.1473 9.9641 61.3527 7.70467C60.5581 5.44524 59.0731 3.48846 57.1049 2.1073C55.1367 0.72614 52.7835 -0.0105095 50.3736 0.000113293H11.6264C9.21646 -0.0105095 6.86325 0.72614 4.89507 2.1073C2.92689 3.48846 1.44191 5.44524 0.64729 7.70467C-0.147333 9.9641 -0.211969 12.4135 0.462399 14.7112C1.13677 17.0088 2.51651 19.0401 4.40914 20.5218C3.03631 21.5878 1.92598 22.9503 1.16235 24.5059C0.398728 26.0615 0.00186397 27.7694 0.00186397 29.5C0.00186397 31.2306 0.398728 32.9385 1.16235 34.4941C1.92598 36.0497 3.03631 37.4122 4.40914 38.4782C2.51651 39.9599 1.13677 41.9912 0.462399 44.2888C-0.211969 46.5865 -0.147333 49.0359 0.64729 51.2953C1.44191 53.5548 2.92689 55.5115 4.89507 56.8927C6.86325 58.2739 9.21646 59.0105 11.6264 58.9999H50.3736C52.7835 59.0105 55.1367 58.2739 57.1049 56.8927C59.0731 55.5115 60.5581 53.5548 61.3527 51.2953C62.1473 49.0359 62.212 46.5865 61.5376 44.2888C60.8632 41.9912 59.4835 39.9599 57.5909 38.4782C58.9589 37.4079 60.0658 36.0445 60.8289 34.4899C61.5919 32.9352 61.9915 31.2295 61.9977 29.5ZM5.16858 11.5435C5.16858 9.84271 5.84896 8.21153 7.06004 7.00886C8.27113 5.80618 9.91371 5.13053 11.6264 5.13053H12.918V7.69574C12.918 8.37607 13.1902 9.02854 13.6746 9.50961C14.159 9.99068 14.8161 10.2609 15.5011 10.2609C16.1862 10.2609 16.8433 9.99068 17.3277 9.50961C17.8121 9.02854 18.0843 8.37607 18.0843 7.69574V5.13053H23.2506V7.69574C23.2506 8.37607 23.5227 9.02854 24.0072 9.50961C24.4916 9.99068 25.1486 10.2609 25.8337 10.2609C26.5188 10.2609 27.1758 9.99068 27.6603 9.50961C28.1447 9.02854 28.4169 8.37607 28.4169 7.69574V5.13053H50.3736C52.0863 5.13053 53.7289 5.80618 54.94 7.00886C56.151 8.21153 56.8314 9.84271 56.8314 11.5435C56.8314 13.2444 56.151 14.8756 54.94 16.0782C53.7289 17.2809 52.0863 17.9566 50.3736 17.9566H11.6264C9.91371 17.9566 8.27113 17.2809 7.06004 16.0782C5.84896 14.8756 5.16858 13.2444 5.16858 11.5435ZM56.8314 47.4565C56.8314 49.1573 56.151 50.7885 54.94 51.9911C53.7289 53.1938 52.0863 53.8695 50.3736 53.8695H11.6264C9.91371 53.8695 8.27113 53.1938 7.06004 51.9911C5.84896 50.7885 5.16858 49.1573 5.16858 47.4565C5.16858 45.7556 5.84896 44.1244 7.06004 42.9218C8.27113 41.7191 9.91371 41.0434 11.6264 41.0434H12.918V43.6086C12.918 44.289 13.1902 44.9415 13.6746 45.4225C14.159 45.9036 14.8161 46.1739 15.5011 46.1739C16.1862 46.1739 16.8433 45.9036 17.3277 45.4225C17.8121 44.9415 18.0843 44.289 18.0843 43.6086V41.0434H23.2506V43.6086C23.2506 44.289 23.5227 44.9415 24.0072 45.4225C24.4916 45.9036 25.1486 46.1739 25.8337 46.1739C26.5188 46.1739 27.1758 45.9036 27.6603 45.4225C28.1447 44.9415 28.4169 44.289 28.4169 43.6086V41.0434H50.3736C52.0863 41.0434 53.7289 41.7191 54.94 42.9218C56.151 44.1244 56.8314 45.7556 56.8314 47.4565ZM11.6264 35.913C9.91371 35.913 8.27113 35.2374 7.06004 34.0347C5.84896 32.832 5.16858 31.2008 5.16858 29.5C5.16858 27.7992 5.84896 26.168 7.06004 24.9653C8.27113 23.7626 9.91371 23.087 11.6264 23.087H12.918V25.6522C12.918 26.3325 13.1902 26.985 13.6746 27.4661C14.159 27.9471 14.8161 28.2174 15.5011 28.2174C16.1862 28.2174 16.8433 27.9471 17.3277 27.4661C17.8121 26.985 18.0843 26.3325 18.0843 25.6522V23.087H23.2506V25.6522C23.2506 26.3325 23.5227 26.985 24.0072 27.4661C24.4916 27.9471 25.1486 28.2174 25.8337 28.2174C26.5188 28.2174 27.1758 27.9471 27.6603 27.4661C28.1447 26.985 28.4169 26.3325 28.4169 25.6522V23.087H50.3736C52.0863 23.087 53.7289 23.7626 54.94 24.9653C56.151 26.168 56.8314 27.7992 56.8314 29.5C56.8314 31.2008 56.151 32.832 54.94 34.0347C53.7289 35.2374 52.0863 35.913 50.3736 35.913H11.6264Z" fill="#7155A4"/>
</svg>
