<svg width="28" height="28" viewBox="0 0 28 28" fill="none" xmlns="http://www.w3.org/2000/svg">
<path d="M14.193 3.04274C17.7629 3.04274 18.1863 3.05611 19.5958 3.12074C21.0532 3.18759 22.5541 3.51963 23.6159 4.58149C24.6878 5.65337 25.0098 7.13974 25.0767 8.60161C25.1413 10.0111 25.1547 10.4345 25.1547 14.0045C25.1547 17.5745 25.1413 17.9979 25.0767 19.4074C25.011 20.857 24.6711 22.3723 23.6159 23.4275C22.5441 24.4994 21.0588 24.8214 19.5958 24.8882C18.1863 24.9528 17.7629 24.9662 14.193 24.9662C10.623 24.9662 10.1996 24.9528 8.79008 24.8882C7.35162 24.8225 5.81622 24.4748 4.76996 23.4275C3.70365 22.3612 3.37607 20.8603 3.30921 19.4074C3.24459 17.9979 3.23122 17.5745 3.23122 14.0045C3.23122 10.4345 3.24459 10.0111 3.30921 8.60161C3.37495 7.15757 3.71813 5.63331 4.76996 4.58149C5.83962 3.51183 7.33156 3.18759 8.79008 3.12074C10.1996 3.05611 10.623 3.04274 14.193 3.04274ZM14.193 0.633789C10.5617 0.633789 10.106 0.649388 8.67977 0.714013C6.61289 0.808722 4.56049 1.38366 3.06631 2.87784C1.56657 4.37758 0.997199 6.42553 0.90249 8.4913C0.837865 9.9175 0.822266 10.3732 0.822266 14.0045C0.822266 17.6357 0.837865 18.0915 0.90249 19.5177C0.997199 21.5823 1.57437 23.6403 3.06631 25.1311C4.56494 26.6298 6.61623 27.2002 8.67977 27.2949C10.106 27.3596 10.5617 27.3752 14.193 27.3752C17.8242 27.3752 18.2799 27.3596 19.7061 27.2949C21.7719 27.2002 23.8265 26.6242 25.3196 25.1311C26.8205 23.6303 27.3887 21.5834 27.4834 19.5177C27.548 18.0915 27.5636 17.6357 27.5636 14.0045C27.5636 10.3732 27.548 9.9175 27.4834 8.4913C27.3887 6.42441 26.8127 4.3709 25.3196 2.87784C23.8232 1.38143 21.7663 0.807608 19.7061 0.714013C18.2799 0.649388 17.8242 0.633789 14.193 0.633789Z" fill="#7155A4"/>
<path d="M14.193 7.13843C10.4013 7.13843 7.32715 10.2126 7.32715 14.0043C7.32715 17.796 10.4013 20.8701 14.193 20.8701C17.9847 20.8701 21.0588 17.796 21.0588 14.0043C21.0588 10.2126 17.9847 7.13843 14.193 7.13843ZM14.193 18.4612C11.7317 18.4612 9.7361 16.4656 9.7361 14.0043C9.7361 11.543 11.7317 9.54738 14.193 9.54738C16.6543 9.54738 18.6499 11.543 18.6499 14.0043C18.6499 16.4656 16.6543 18.4612 14.193 18.4612Z" fill="#7155A4"/>
<path d="M21.3308 8.47117C22.2169 8.47117 22.9353 7.75282 22.9353 6.86669C22.9353 5.98056 22.2169 5.26221 21.3308 5.26221C20.4447 5.26221 19.7263 5.98056 19.7263 6.86669C19.7263 7.75282 20.4447 8.47117 21.3308 8.47117Z" fill="#7155A4"/>
</svg>
