<svg width="59" height="59" viewBox="0 0 59 59" fill="none" xmlns="http://www.w3.org/2000/svg">
<path d="M7.30463 26.265C9.08483 14.1675 20.3349 5.80371 32.4324 7.58391C36.5598 8.19124 40.4316 9.95238 43.6018 12.6644L40.748 15.5183C39.7915 16.475 39.7917 18.0261 40.7486 18.9827C41.2078 19.4418 41.8306 19.6998 42.48 19.6999H53.7143C55.0672 19.6999 56.1639 18.6032 56.1639 17.2502V6.01591C56.1636 4.66299 55.0666 3.56649 53.7137 3.56672C53.0644 3.56683 52.4415 3.82485 51.9823 4.28394L48.7975 7.4685C36.6532 -3.35704 18.0323 -2.28797 7.2068 9.85638C3.37161 14.1587 0.882798 19.4916 0.0486777 25.1945C-0.280194 27.2163 1.09213 29.1219 3.11382 29.4507C3.29594 29.4804 3.47989 29.4963 3.66442 29.4986C5.5141 29.4786 7.0667 28.0994 7.30463 26.265Z" fill="#7155A4"/>
<path d="M54.7699 29.4987C52.9202 29.5186 51.3676 30.8979 51.1297 32.7323C49.3495 44.8298 38.0995 53.1936 26.002 51.4135C21.8745 50.8062 18.0027 49.045 14.8325 46.333L17.6864 43.4791C18.6429 42.5224 18.6427 40.9713 17.6858 40.0147C17.2266 39.5556 16.6037 39.2976 15.9544 39.2975H4.72028C3.36737 39.2975 2.27063 40.3942 2.27063 41.7472V52.9815C2.27097 54.3344 3.36794 55.4309 4.72086 55.4307C5.37022 55.4306 5.99305 55.1726 6.45226 54.7135L9.63682 51.5289C21.7783 62.3556 40.3978 61.2899 51.2246 49.1483C55.0618 44.845 57.5518 39.5103 58.3857 33.8053C58.7159 31.7838 57.3449 29.8773 55.3234 29.547C55.1404 29.517 54.9554 29.5008 54.7699 29.4987Z" fill="#7155A4"/>
</svg>
