<svg width="28" height="28" viewBox="0 0 28 28" fill="none" xmlns="http://www.w3.org/2000/svg">
<path d="M23.2277 23.4203H19.265V17.2147C19.265 15.7348 19.2387 13.8305 17.204 13.8305C15.1403 13.8305 14.824 15.4422 14.824 17.1079V23.4203H10.8627V10.6586H14.6672V12.402H14.7199C15.4961 11.0763 16.9378 10.2843 18.473 10.341C22.4897 10.341 23.229 12.9832 23.229 16.4187L23.2277 23.4203ZM6.39133 8.91378C5.12096 8.91378 4.09175 7.88457 4.09175 6.6142C4.09175 5.34383 5.12096 4.31462 6.39133 4.31462C7.6617 4.31462 8.69091 5.34383 8.69091 6.6142C8.69091 7.88457 7.6617 8.91378 6.39133 8.91378ZM8.372 23.4203H4.40539V10.6586H8.372V23.4203ZM25.2031 0.635287H2.41417C1.33752 0.623427 0.454584 1.48659 0.441406 2.56325V25.4457C0.454584 26.5237 1.33752 27.3869 2.41417 27.375H25.2031C26.2824 27.3882 27.1693 26.525 27.1838 25.4457V2.56193C27.168 1.48264 26.2811 0.619473 25.2031 0.633969" fill="#7155A4"/>
</svg>
