<svg width="26" height="18" viewBox="0 0 26 18" fill="none" xmlns="http://www.w3.org/2000/svg">
<path d="M24.3067 7.87512H1.29709C0.691962 7.87512 0.201416 8.37879 0.201416 9.00011C0.201416 9.62143 0.691962 10.1251 1.29709 10.1251H24.3067C24.9118 10.1251 25.4023 9.62143 25.4023 9.00011C25.4024 8.37879 24.9118 7.87512 24.3067 7.87512Z" fill="#272643"/>
<path d="M1.29709 2.24997H24.3067C24.9118 2.24997 25.4023 1.74631 25.4023 1.12499C25.4023 0.503668 24.9118 0 24.3067 0H1.29709C0.691962 0 0.201416 0.503668 0.201416 1.12499C0.201416 1.74631 0.691962 2.24997 1.29709 2.24997Z" fill="#272643"/>
<path d="M24.3067 15.7499H1.29709C0.691962 15.7499 0.201416 16.2537 0.201416 16.875C0.201416 17.4963 0.691962 18 1.29709 18H24.3067C24.9118 18 25.4023 17.4963 25.4023 16.875C25.4024 16.2537 24.9118 15.7499 24.3067 15.7499Z" fill="#272643"/>
</svg>
