<svg width="18" height="17" viewBox="0 0 18 17" fill="none" xmlns="http://www.w3.org/2000/svg">
<path d="M0 4.42393C0 9.83391 7.59628 17 13.3179 17C14.5702 17 15.74 16.5539 16.6023 15.7396L17.3522 14.9252C18.2221 14.1038 18.2221 12.7159 17.3147 11.8591C17.2922 11.8379 15.485 10.5279 15.485 10.5279C14.5852 9.72061 13.1679 9.72061 12.2755 10.5279L11.1807 11.3563C8.78109 10.3933 7.07887 8.77882 5.98404 6.43497L6.8539 5.40112C7.71626 4.55847 7.71626 3.21306 6.8539 2.3704C6.8539 2.3704 5.46662 0.663855 5.44413 0.642612C4.53677 -0.214204 3.06701 -0.214204 2.15965 0.642612L1.37228 1.28699C0.472425 2.12965 0 3.2343 0 4.41685V4.42393Z" fill="#121212"/>
</svg>
