<svg width="50" height="59" viewBox="0 0 50 59" fill="none" xmlns="http://www.w3.org/2000/svg">
<path d="M40.761 5.26134L25.3598 0.125965C24.8555 -0.0419884 24.3104 -0.0419884 23.8061 0.125965L8.40492 5.26134C5.95622 6.07475 3.82613 7.63915 2.3173 9.73227C0.808469 11.8254 -0.00236408 14.3408 5.17746e-06 16.921V29.5001C5.17746e-06 48.0922 22.6163 58.3605 23.5849 58.7883C23.8991 58.9279 24.2391 59 24.583 59C24.9268 59 25.2668 58.9279 25.581 58.7883C26.5496 58.3605 49.1659 48.0922 49.1659 29.5001V16.921C49.1683 14.3408 48.3574 11.8254 46.8486 9.73227C45.3398 7.63915 43.2097 6.07475 40.761 5.26134ZM44.2493 29.5001C44.2493 42.9101 28.7154 51.7059 24.583 53.8102C20.4456 51.7133 4.9166 42.9446 4.9166 29.5001V16.921C4.91674 15.373 5.40401 13.8642 6.30938 12.6086C7.21475 11.3529 8.4923 10.4139 9.96102 9.92473L24.583 5.04993L39.2049 9.92473C40.6736 10.4139 41.9512 11.3529 42.8565 12.6086C43.7619 13.8642 44.2492 15.373 44.2493 16.921V29.5001Z" fill="#7155A4"/>
<path d="M32.6954 20.4045L22.4 30.7293L16.8836 24.9769C16.6622 24.7348 16.3947 24.5395 16.0966 24.4025C15.7986 24.2655 15.4762 24.1895 15.1483 24.179C14.8204 24.1685 14.4938 24.2237 14.1876 24.3414C13.8814 24.4591 13.6019 24.6368 13.3655 24.8642C13.1291 25.0916 12.9406 25.364 12.811 25.6654C12.6815 25.9668 12.6136 26.291 12.6114 26.619C12.6091 26.9471 12.6725 27.2722 12.7979 27.5753C12.9232 27.8785 13.108 28.1535 13.3412 28.3841L19.01 34.284C19.4328 34.7406 19.9438 35.1068 20.5121 35.3603C21.0804 35.6138 21.6942 35.7494 22.3165 35.759H22.3976C23.0074 35.761 23.6115 35.6419 24.1749 35.4085C24.7382 35.1751 25.2497 34.8322 25.6794 34.3995L36.1812 23.8977C36.4106 23.6688 36.5927 23.397 36.717 23.0978C36.8413 22.7985 36.9055 22.4777 36.9058 22.1537C36.9061 21.8297 36.8427 21.5087 36.719 21.2092C36.5953 20.9097 36.4138 20.6375 36.1849 20.4082C35.956 20.1788 35.6842 19.9967 35.385 19.8724C35.0858 19.7481 34.765 19.6839 34.4409 19.6836C34.1169 19.6833 33.796 19.7467 33.4965 19.8704C33.197 19.9941 32.9247 20.1756 32.6954 20.4045Z" fill="#7155A4"/>
</svg>
