<svg width="59" height="59" viewBox="0 0 59 59" fill="none" xmlns="http://www.w3.org/2000/svg">
<path d="M36.4595 41.7917C35.8302 41.7917 35.2009 41.5508 34.7215 41.0714C33.7603 40.1102 33.7603 38.5565 34.7215 37.5953L41.0714 31.2454C41.5335 30.7808 41.7917 30.1637 41.7917 29.5049C41.7917 28.8461 41.536 28.2315 41.0714 27.7669L34.7215 21.4145C33.7603 20.4533 33.7603 18.8972 34.7215 17.9385C35.6827 16.9772 37.2364 16.9772 38.1976 17.9385L44.5475 24.2883C45.9389 25.6797 46.7083 27.5333 46.7083 29.5025C46.7083 31.4716 45.9413 33.3252 44.5475 34.719L38.1976 41.0689C37.7182 41.5483 37.0889 41.7917 36.4595 41.7917ZM24.2785 41.0591C25.2397 40.0979 25.2397 38.5442 24.2785 37.583L17.9286 31.2331C17.464 30.7685 17.2083 30.1515 17.2083 29.4926C17.2083 28.8338 17.464 28.2192 17.9286 27.7546L24.2785 21.4047C25.2397 20.4435 25.2397 18.8898 24.2785 17.9286C23.3173 16.9674 21.7636 16.9674 20.8024 17.9286L14.4525 24.2785C13.0587 25.6724 12.2917 27.5235 12.2917 29.4951C12.2917 31.4667 13.0587 33.3178 14.4525 34.7117L20.8024 41.0615C21.2818 41.5409 21.9111 41.7818 22.5405 41.7818C23.1698 41.7818 23.7991 41.5385 24.2785 41.0591ZM59 46.7083V12.2917C59 5.51404 53.486 0 46.7083 0H12.2917C5.51404 0 0 5.51404 0 12.2917V46.7083C0 53.486 5.51404 59 12.2917 59H46.7083C53.486 59 59 53.486 59 46.7083ZM46.7083 4.91667C50.7744 4.91667 54.0833 8.22558 54.0833 12.2917V46.7083C54.0833 50.7744 50.7744 54.0833 46.7083 54.0833H12.2917C8.22558 54.0833 4.91667 50.7744 4.91667 46.7083V12.2917C4.91667 8.22558 8.22558 4.91667 12.2917 4.91667H46.7083Z" fill="#7155A4"/>
</svg>
