<svg width="45" height="59" viewBox="0 0 45 59" fill="none" xmlns="http://www.w3.org/2000/svg">
<path d="M22.125 29.5C25.0423 29.5 27.894 28.6349 30.3197 27.0142C32.7453 25.3934 34.6358 23.0898 35.7522 20.3946C36.8686 17.6994 37.1607 14.7336 36.5916 11.8724C36.0224 9.0112 34.6176 6.383 32.5548 4.32018C30.492 2.25736 27.8638 0.852555 25.0026 0.283424C22.1414 -0.285708 19.1756 0.00639097 16.4804 1.12278C13.7852 2.23918 11.4816 4.12972 9.86082 6.55534C8.24007 8.98097 7.375 11.8327 7.375 14.75C7.3789 18.6607 8.93417 22.4102 11.6995 25.1755C14.4648 27.9408 18.2143 29.4961 22.125 29.5ZM22.125 4.91667C24.0698 4.91667 25.971 5.49339 27.5881 6.57389C29.2052 7.65439 30.4655 9.19014 31.2098 10.9869C31.9541 12.7838 32.1488 14.7609 31.7694 16.6684C31.39 18.5759 30.4534 20.328 29.0782 21.7032C27.703 23.0784 25.9509 24.015 24.0434 24.3944C22.1359 24.7738 20.1587 24.5791 18.3619 23.8348C16.5651 23.0906 15.0294 21.8302 13.9489 20.2131C12.8684 18.596 12.2917 16.6948 12.2917 14.75C12.2917 12.142 13.3277 9.64089 15.1718 7.79679C17.0159 5.95268 19.517 4.91667 22.125 4.91667Z" fill="#7155A4"/>
<path d="M22.125 34.4167C16.2591 34.4232 10.6353 36.7563 6.48745 40.9041C2.33962 45.052 0.00650684 50.6758 0 56.5417C0 57.1937 0.259002 57.819 0.720029 58.28C1.18106 58.741 1.80634 59 2.45833 59C3.11032 59 3.73561 58.741 4.19664 58.28C4.65766 57.819 4.91666 57.1937 4.91666 56.5417C4.91666 51.9777 6.72968 47.6007 9.95687 44.3736C13.1841 41.1464 17.5611 39.3334 22.125 39.3334C26.6889 39.3334 31.0659 41.1464 34.2931 44.3736C37.5203 47.6007 39.3333 51.9777 39.3333 56.5417C39.3333 57.1937 39.5923 57.819 40.0533 58.28C40.5144 58.741 41.1397 59 41.7916 59C42.4436 59 43.0689 58.741 43.53 58.28C43.991 57.819 44.25 57.1937 44.25 56.5417C44.2435 50.6758 41.9104 45.052 37.7625 40.9041C33.6147 36.7563 27.9909 34.4232 22.125 34.4167Z" fill="#7155A4"/>
</svg>
