<svg width="173" height="273" viewBox="0 0 173 273" fill="none" xmlns="http://www.w3.org/2000/svg">
<path d="M162.342 93.861L10.0041 5.90878C4.35183 2.64545 -2.87568 4.58206 -6.13901 10.2343L-94.0912 162.572C-97.3546 168.224 -95.418 175.452 -89.7657 178.715L62.572 266.667C68.2243 269.931 75.4518 267.994 78.7151 262.342L166.667 110.004C169.931 104.352 167.994 97.1243 162.342 93.861Z" fill="#0F1131"/>
<path d="M66.5997 148.418L26.1674 151.068C19.5619 151.518 17.5801 160.208 23.2706 163.493L65.6906 187.984C68.0185 189.328 69.2838 191.915 68.9941 194.568L67.0399 210.975C66.4918 215.747 61.2049 218.333 57.0664 215.944L-48.932 154.746C-52.1394 152.894 -53.2371 148.822 -51.391 145.624L-42.2198 129.739C-41.118 127.831 -39.0929 126.593 -36.8639 126.436L41.8531 121.272C43.1416 121.19 44.4881 121.486 45.6262 122.144L69.4746 135.912C75.2168 139.228 73.1832 147.887 66.5777 148.337L66.5997 148.418ZM122.756 122.595L115.163 135.747C113.317 138.945 109.241 140.03 106.034 138.178L30.5057 94.5718C28.1778 93.2277 26.9125 90.6405 27.2022 87.9884L29.1565 71.5813C29.7045 66.809 34.9914 64.2226 39.13 66.612L120.349 113.504C123.556 115.355 124.654 119.428 122.808 122.625L122.756 122.595Z" fill="#7155A4"/>
</svg>
