<svg width="252" height="62" viewBox="0 0 252 62" fill="none" xmlns="http://www.w3.org/2000/svg">
<path d="M74.9658 36.2106L90.0399 24.5913H74.9658V20.7183H96.6951V24.5913L81.5664 36.2106H97.386V40.0837H74.9658V36.2106Z" fill="#0F1131"/>
<path d="M100.732 40.0837V20.7183H123.225V24.5913H104.878V27.8825H121.588V31.7556H104.878V36.2106H123.225V40.0837H100.732Z" fill="#0F1131"/>
<path d="M125.716 20.6816H130.207L144.063 34.7738V20.6816H148.209V40.0834H143.754L129.862 25.9367V40.0834H125.716V20.6816Z" fill="#0F1131"/>
<path d="M150.7 20.7183H173.084V24.5913H163.974V40.0837H159.828V24.5913H150.7V20.7183Z" fill="#0F1131"/>
<path d="M175.575 40.0837V20.7183H198.068V24.5913H179.721V27.8825H196.431V31.7556H179.721V36.2106H198.068V40.0837H175.575Z" fill="#0F1131"/>
<path d="M217.215 36.4831C218.051 36.4831 218.761 36.4831 219.361 36.4831C219.961 36.4831 220.452 36.4104 220.852 36.2831C221.252 36.1558 221.543 35.9376 221.743 35.6649C221.943 35.3739 222.034 34.9557 222.034 34.3739H226.179C226.179 35.2103 226.016 35.974 225.707 36.7195C225.398 37.4468 224.961 38.0833 224.416 38.6288C223.87 39.1743 223.234 39.6107 222.506 39.9198C221.779 40.2289 220.997 40.3926 220.161 40.3926H206.578C205.741 40.3926 204.959 40.2289 204.232 39.9198C203.505 39.6107 202.868 39.1743 202.305 38.6288C201.759 38.0833 201.323 37.4468 200.995 36.7195C200.686 35.9922 200.523 35.2103 200.523 34.3739V26.4277C200.523 25.5912 200.686 24.8275 200.995 24.1002C201.304 23.3729 201.741 22.7546 202.305 22.2091C202.85 21.6636 203.505 21.2454 204.232 20.9181C204.959 20.5908 205.741 20.4453 206.578 20.4453H220.161C220.997 20.4453 221.761 20.609 222.506 20.9181C223.234 21.2272 223.87 21.6636 224.416 22.2091C224.961 22.7546 225.379 23.391 225.707 24.1002C226.034 24.8093 226.179 25.5912 226.179 26.4277H222.034C222.034 25.864 221.943 25.4276 221.743 25.1366C221.543 24.8457 221.252 24.6457 220.852 24.5366C220.452 24.4093 219.961 24.3548 219.361 24.3366C218.761 24.3366 218.051 24.3366 217.215 24.3366H207.305C206.596 24.3366 206.069 24.4639 205.723 24.7366C205.359 25.0094 205.105 25.373 204.959 25.8276C204.814 26.2822 204.741 26.8277 204.723 27.4641C204.705 28.1006 204.723 28.7552 204.723 29.4643V30.8826C204.723 31.5918 204.723 32.2827 204.723 32.9555C204.723 33.6283 204.814 34.2466 204.959 34.7739C205.105 35.3012 205.359 35.7194 205.723 36.0467C206.087 36.374 206.614 36.5377 207.305 36.5377H217.215V36.4831Z" fill="#0F1131"/>
<path d="M233.653 40.0837H229.507V20.7183H233.653V28.4644H247.854V20.7183H252V40.0837H247.854V32.3375H233.653V40.0837Z" fill="#0F1131"/>
<path d="M57.7031 0H3.63255C1.62635 0 0 1.62635 0 3.63255V57.7031C0 59.7093 1.62635 61.3356 3.63255 61.3356H57.7031C59.7093 61.3356 61.3356 59.7093 61.3356 57.7031V3.63255C61.3356 1.62635 59.7093 0 57.7031 0Z" fill="#0F1131"/>
<path d="M40.6013 29.2385L30.2454 36.1581C28.5561 37.2931 29.364 39.9108 31.3838 39.9108H46.4403C47.2666 39.9108 48.001 40.4051 48.3315 41.1556L50.333 45.8236C50.9205 47.1782 49.9106 48.6793 48.4417 48.6793H10.8188C9.6804 48.6793 8.76233 47.764 8.76233 46.629V40.9908C8.76233 40.3135 9.1112 39.6728 9.68041 39.2884L29.8414 25.8153C30.1719 25.5957 30.5759 25.4675 30.9798 25.4675H39.4445C41.4827 25.4675 42.2722 28.0852 40.5829 29.2202L40.6013 29.2385ZM51.5815 13.7335V18.4015C51.5815 19.5364 50.6635 20.4517 49.525 20.4517H22.7171C21.8909 20.4517 21.1564 19.9575 20.8259 19.2069L18.8245 14.5389C18.2369 13.1843 19.2468 11.6832 20.7157 11.6832H49.5434C50.6818 11.6832 51.5999 12.5985 51.5999 13.7335H51.5815Z" fill="#7155A4"/>
</svg>
