<svg width="123" height="245" viewBox="0 0 123 245" fill="none" xmlns="http://www.w3.org/2000/svg">
<path d="M181.326 3.0585L11.4149 48.5859C5.11062 50.2751 1.36939 56.7552 3.05861 63.0594L48.586 232.97C50.2753 239.274 56.7553 243.016 63.0595 241.326L232.97 195.799C239.274 194.11 243.016 187.63 241.326 181.325L195.799 11.4148C194.11 5.11051 187.63 1.36928 181.326 3.0585Z" fill="#0F1131"/>
<path d="M152.204 109.336L125.488 139.8C121.135 144.789 125.878 152.335 132.225 150.634L179.538 137.956C182.135 137.261 184.859 138.195 186.529 140.276L196.749 153.259C199.736 157.021 197.826 162.588 193.21 163.825L74.9846 195.504C71.4073 196.462 67.7516 194.359 66.796 190.793L62.0486 173.075C61.4783 170.947 62.0351 168.64 63.5001 166.952L115.51 107.639C116.363 106.671 117.525 105.928 118.794 105.588L145.393 98.4604C151.798 96.7443 156.483 104.305 152.131 109.294L152.204 109.336ZM173.653 51.3681L177.583 66.0368C178.539 69.6033 176.424 73.2525 172.847 74.211L88.6061 96.7833C86.0096 97.479 83.2855 96.5443 81.615 94.4641L71.3953 81.4807C68.4083 77.7186 70.3178 72.1513 74.9338 70.9145L165.522 46.6415C169.099 45.683 172.755 47.7862 173.71 51.3527L173.653 51.3681Z" fill="#7155A4"/>
</svg>
